Coordinates
version=1
nRows=16
nColumns=22
inDegrees=yes

Units are S.I. units (second, meters, Newtons, ...)
If the header above contains a line with 'inDegrees', this indicates whether rotational values are in degrees (yes) or radians (no).

endheader
time	pelvis_tilt	pelvis_list	pelvis_rotation	pelvis_tx	pelvis_ty	pelvis_tz	hip_flexion_r	hip_adduction_r	hip_rotation_r	knee_angle_r	ankle_angle_r	subtalar_angle_r	hip_flexion_l	hip_adduction_l	hip_rotation_l	knee_angle_l	ankle_angle_l	subtalar_angle_l	lumbar_extension	lumbar_bending	lumbar_rotation
      2.59000000	     -0.89852018	      2.11603671	    -39.78554532	      0.13174267	      0.89515750	     -0.35593477	    -13.45726309	      3.09023717	     10.13669845	    -24.42703242	      7.77937002	     -6.10197692	     31.30921618	      1.77848441	     13.89250645	    -31.46567584	      3.97330552	      9.35773376	     -5.64246187	     -5.44692508	      3.62065859
      2.60000000	     -0.49524309	      2.48559861	    -40.11707468	      0.14152810	      0.89670328	     -0.34945514	    -12.90918782	      2.43257295	      9.15386272	    -26.46435050	      5.46938822	     -5.67375264	     30.51701966	      2.30029683	     13.43674238	    -31.72140956	      4.55044725	      9.05181100	     -5.54473450	     -6.10548711	      3.41927549
      2.61000000	     -0.11026616	      2.80484395	    -40.50211887	      0.15100266	      0.89843691	     -0.34303121	    -12.15568883	      1.77648255	      8.03666528	    -28.75997268	      3.02188324	     -5.22384165	     29.61737402	      2.73997304	     12.96231594	    -31.78870424	      5.13382437	      8.67420892	     -5.50624180	     -6.69686256	      3.19971131
      2.62000000	      0.25828109	      3.08493851	    -40.96360254	      0.16008138	      0.90031863	     -0.33670486	    -11.17653787	      1.09037505	      6.84035164	    -31.32423445	      0.51887291	     -4.74938340	     28.63150667	      3.10309811	     12.45487795	    -31.68198000	      5.69550617	      8.24608881	     -5.52984691	     -7.22842888	      2.97823630
      2.63000000	      0.60957389	      3.33834433	    -41.52353267	      0.16866884	      0.90227947	     -0.33048669	     -9.95817764	      0.35616527	      5.64549074	    -34.15137296	     -1.91745109	     -4.23727741	     27.59040061	      3.39567394	     11.90649138	    -31.42946796	      6.23746569	      7.76684712	     -5.60843606	     -7.71801695	      2.78384005
      2.64000000	      0.95462701	      3.59311435	    -42.17970123	      0.17676243	      0.90424685	     -0.32441236	     -8.49572218	     -0.47061275	      4.45207706	    -37.22086057	     -4.16375392	     -3.81496316	     26.52731953	      3.65284492	     11.30055009	    -31.05641427	      6.64152941	      7.42908423	     -5.72993055	     -8.19743350	      2.61654246
      2.65000000	      1.28808585	      3.87818254	    -42.92333511	      0.18441736	      0.90608437	     -0.31848767	     -6.79255857	     -1.39920983	      3.34079595	    -40.48750647	     -6.05799226	     -3.22978454	     25.50616140	      3.89997703	     10.59175369	    -30.63333435	      7.07940001	      6.97629343	     -5.85570872	     -8.68180489	      2.41205609
      2.66000000	      1.60481745	      4.17803655	    -43.73579497	      0.19169340	      0.90778468	     -0.31271348	     -4.88707432	     -2.40558323	      2.31499418	    -43.87834030	     -7.56997396	     -2.62569800	     24.51160302	      4.14641103	      9.88392838	    -30.14769676	      7.45834136	      6.58352391	     -5.98323128	     -9.15442189	      2.23779029
      2.67000000	      1.95473335	      4.50323214	    -44.58498017	      0.19871422	      0.90934143	     -0.30709285	     -2.85211998	     -3.52979186	      1.34904102	    -47.32527899	     -8.56385137	     -2.10825452	     23.54247789	      4.44105067	      9.11304952	    -29.64874301	      7.72672331	      6.34049918	     -6.13959538	     -9.65821147	      2.01916000
      2.68000000	      2.26219511	      4.85450923	    -45.44863161	      0.20552553	      0.91065151	     -0.30160583	     -0.66020672	     -4.66775059	      0.52425314	    -50.75290792	     -9.04280280	     -1.53390278	     22.66077814	      4.74983997	      8.37152179	    -29.15582481	      8.06599078	      6.03381775	     -6.24363177	    -10.13073343	      1.75128251
      2.69000000	      2.62757211	      5.19232122	    -46.30743792	      0.21222481	      0.91189358	     -0.29620187	      1.53084441	     -5.86391381	     -0.22672140	    -54.06881775	     -8.96742137	     -1.23221204	     21.75468226	      5.11492547	      7.61643594	    -28.65932958	      8.29721958	      5.84387510	     -6.40871286	    -10.62456649	      1.41746398
      2.70000000	      2.98246264	      5.51555492	    -47.14245860	      0.21883364	      0.91299715	     -0.29086125	      3.74765831	     -7.02588237	     -0.87121292	    -57.21707288	     -8.39099500	     -1.16346069	     20.87167913	      5.49708017	      6.91928882	    -28.16525847	      8.56193411	      5.64895619	     -6.56818112	    -11.08190758	      1.02664172
      2.71000000	      3.30642088	      5.81912831	    -47.93610046	      0.22536531	      0.91395454	     -0.28557732	      5.97592118	     -8.11588648	     -1.44410187	    -60.14702819	     -7.39021952	     -1.49464983	     20.04858715	      5.87566515	      6.25992022	    -27.72693261	      8.85277795	      5.38051441	     -6.70889729	    -11.48326767	      0.60565232
      2.72000000	      3.66145595	      6.06055968	    -48.69215082	      0.23180789	      0.91496241	     -0.28023507	      8.09250904	     -9.12319409	     -1.94294602	    -62.78133102	     -6.06791838	     -2.14648923	     19.15808417	      6.25626005	      5.64366183	    -27.26412294	      9.08320030	      5.16803957	     -6.91300440	    -11.86362818	      0.10625217
      2.73000000	      3.99968355	      6.22901116	    -49.39634098	      0.23818204	      0.91600639	     -0.27483289	     10.10131918	     -9.97817971	     -2.37575656	    -65.08616538	     -4.56154062	     -3.07675754	     18.22749324	      6.59934166	      5.09504879	    -26.79358042	      9.31120358	      4.96543401	     -7.14752274	    -12.16696909	     -0.44512368
      2.74000000	      4.27852952	      6.28642593	    -50.03761300	      0.24442171	      0.91712894	     -0.26932142	     11.96644071	    -10.58781475	     -2.76351250	    -67.01211799	     -2.94593300	     -4.33248622	     17.24692490	      6.84324358	      4.66759662	    -26.31446212	      9.60041182	      4.75970255	     -7.41621264	    -12.34241370	     -1.02975808
